<?xml version="1.0" encoding="UTF-8" standalone="no"?>
<svg
   width="158"
   height="24"
   viewBox="0 0 158 24"
   version="1.1"
   id="svg79"
   sodipodi:docname="fb_horizontal_full.svg"
   inkscape:version="1.2.1 (9c6d41e410, 2022-07-14)"
   xmlns:inkscape="http://www.inkscape.org/namespaces/inkscape"
   xmlns:sodipodi="http://sodipodi.sourceforge.net/DTD/sodipodi-0.dtd"
   xmlns="http://www.w3.org/2000/svg"
   xmlns:svg="http://www.w3.org/2000/svg"
   xmlns:rdf="http://www.w3.org/1999/02/22-rdf-syntax-ns#"
   xmlns:cc="http://creativecommons.org/ns#"
   xmlns:dc="http://purl.org/dc/elements/1.1/">
  <defs
     id="defs83" />
  <sodipodi:namedview
     id="namedview81"
     pagecolor="#ffffff"
     bordercolor="#000000"
     borderopacity="0.25"
     inkscape:showpageshadow="2"
     inkscape:pageopacity="0.0"
     inkscape:pagecheckerboard="0"
     inkscape:deskcolor="#d1d1d1"
     showgrid="false"
     inkscape:zoom="4.5917603"
     inkscape:cx="133.5"
     inkscape:cy="11.977977"
     inkscape:window-width="1366"
     inkscape:window-height="705"
     inkscape:window-x="-8"
     inkscape:window-y="-8"
     inkscape:window-maximized="1"
     inkscape:current-layer="Symbols" />
  <!-- Generator: Sketch 61.2 (89653) - https://sketch.com -->
  <title
     id="title2">escola_virtual_horizontal_vermelho</title>
  <desc
     id="desc4">Created with Sketch.</desc>
  <g
     id="Symbols"
     stroke="none"
     stroke-width="1"
     fill="none"
     fill-rule="evenodd">
    <g
       id="header_off"
       transform="translate(-16,-12)"
       fill="#FFFFFF"
       fill-rule="nonzero"
       style="fill:#ffffff">
      <g
         id="Group"
         style="fill:#ffffff">
        <g
           id="Group-2"
           transform="translate(16,9)"
           style="fill:#ffffff">
          <g
             id="escola_virtual_horizontal_vermelho"
             transform="translate(0,3)"
             style="fill:#ffffff">
            <g
               id="escola_virtual_horizontal_preto"
               style="fill:#ffffff">
              <path
                 d="m 28.5005,9.3704348 c 0.366892,-0.00612 0.733111,0.033148 1.090056,0.1168696 0.03202,-0.1798641 0.04833,-0.3620938 0.04878,-0.5446957 3.21e-4,-0.1771036 -0.01601,-0.3538567 -0.04878,-0.528 -0.406259,-0.096817 -0.822629,-0.1465458 -1.240628,-0.1481739 -1.758085,0 -3.113232,0.9892174 -3.113232,3.2118262 v 8.504348 c 0.220866,0.04219 0.445172,0.06455 0.670151,0.06678 0.241022,-0.0042 0.481365,-0.02652 0.718927,-0.06678 V 13.02887 h 2.969023 c 0.03194,-0.190401 0.04825,-0.383024 0.04878,-0.576 3.16e-4,-0.177104 -0.01601,-0.353857 -0.04878,-0.528 h -2.969023 v -0.511305 c 0,-1.4170433 0.670151,-2.0431302 1.874726,-2.0431302 z"
                 id="Path"
                 style="fill:#ffffff" />
              <path
                 d="m 36.404464,11.92487 v 6.872347 c -0.55555,0.131768 -1.125129,0.197627 -1.696585,0.196174 -1.558737,0 -2.377339,-0.834782 -2.377339,-2.61913 V 11.92487 c -0.220883,-0.04208 -0.445179,-0.06443 -0.670151,-0.06678 -0.24182,0.0025 -0.483007,0.02481 -0.721048,0.06678 v 4.499478 c 0,2.437565 1.30637,3.673043 3.683709,3.673043 1.076393,-0.01503 2.146035,-0.170118 3.181096,-0.461217 V 11.92487 c -0.225879,-0.04213 -0.455108,-0.06448 -0.684996,-0.06678 -0.239747,0.0018 -0.478879,0.02415 -0.714686,0.06678 z"
                 id="path7"
                 style="fill:#ffffff" />
              <path
                 d="m 42.95116,11.793391 c -1.087646,0.01366 -2.168686,0.168739 -3.215028,0.461218 v 7.721739 c 0.220883,0.04208 0.445179,0.06443 0.670151,0.06678 0.241819,-0.0025 0.483007,-0.02481 0.721048,-0.06678 v -6.886957 c 0.569237,-0.140861 1.154167,-0.210972 1.74112,-0.208695 1.573582,0 2.411271,0.834782 2.411271,2.635826 v 4.466087 c 0.220866,0.04219 0.445173,0.06455 0.670151,0.06678 0.241112,-0.0026 0.481587,-0.0249 0.718928,-0.06678 v -4.497392 c 0,-2.439652 -1.340302,-3.691826 -3.717641,-3.691826 z"
                 id="path9"
                 style="fill:#ffffff" />
              <path
                 d="m 53.735075,9.3704348 v 2.5878262 c -0.486259,-0.113729 -0.984725,-0.169089 -1.484511,-0.16487 -2.428237,0 -4.029389,1.648696 -4.029389,4.284522 0,2.635826 1.562979,4.036174 3.948801,4.036174 1.009958,-0.01009 2.011966,-0.17701 2.969023,-0.494609 V 8.1516522 c -0.410005,0.1499602 -0.794112,0.361128 -1.138832,0.6260869 -0.179878,0.1442683 -0.278478,0.3647188 -0.265092,0.5926957 z m 0,9.4267822 c -0.496724,0.135278 -1.00942,0.205449 -1.524805,0.208696 -1.656291,0 -2.593654,-1.087304 -2.593654,-2.921739 0,-2.126609 1.060366,-3.180522 2.695449,-3.180522 0.47963,-0.0067 0.958068,0.04877 1.42301,0.16487 z"
                 id="Shape"
                 style="fill:#ffffff" />
              <path
                 d="m 59.528912,11.793381 c -0.73194,-0.0012 -1.460077,0.103589 -2.161025,0.310967 -0.0336,0.1684 -0.04994,0.339693 -0.04878,0.511304 -9.44e-4,0.187502 0.01538,0.374703 0.04878,0.559305 0.686598,-0.189995 1.396915,-0.284133 2.110127,-0.279653 1.340302,0 2.093162,0.609392 2.093162,1.976348 v 0.313044 c -0.498497,-0.07168 -1.001971,-0.104475 -1.505719,-0.09809 -2.093161,0 -3.3656,0.905739 -3.3656,2.454261 0,1.780173 1.372113,2.57113 3.263805,2.57113 0.986219,-0.0061 1.966832,-0.14653 2.913884,-0.417391 v -4.639305 c 0,-2.289391 -1.323336,-3.261923 -3.348634,-3.261923 z m 2.042264,7.085228 c -0.518015,0.104021 -1.044924,0.159227 -1.573583,0.164869 -1.30637,0 -2.010452,-0.544695 -2.010452,-1.531826 0,-1.022609 0.738014,-1.433739 2.17799,-1.433739 0.470156,-0.01082 0.940421,0.0164 1.406045,0.08139 z"
                 id="path12"
                 style="fill:#ffffff" />
              <path
                 d="m 68.402049,18.976696 c -1.772931,0 -2.544877,-1.152 -2.544877,-3.046957 0,-1.894956 0.786791,-3.015652 2.530032,-3.015652 0.599341,0.0041 1.19163,0.127595 1.74112,0.36313 0.03236,-0.185436 0.04868,-0.37324 0.04878,-0.561391 0.0014,-0.177148 -0.01496,-0.354 -0.04878,-0.528 -0.627919,-0.271087 -1.307893,-0.405627 -1.993487,-0.394435 -2.294631,0 -3.683709,1.68 -3.683709,4.153044 0,2.372869 1.138832,3.921391 3.231993,4.134261 0.201905,0.242088 0.31409,0.54458 0.31811,0.857739 0,0.494608 -0.352041,0.807652 -0.903431,0.807652 -0.409907,4.27e-4 -0.815299,-0.0842 -1.18973,-0.248348 -0.02213,0.152783 -0.03346,0.306891 -0.03393,0.461217 9.86e-4,0.149456 0.01232,0.298671 0.03393,0.446609 0.428113,0.182141 0.890944,0.27181 1.357268,0.262957 1.020071,0 1.775051,-0.544696 1.775051,-1.531826 -0.0084,-0.383969 -0.143897,-0.754752 -0.385973,-1.056 0.553803,-0.02232 1.098708,-0.144707 1.607514,-0.361044 0.03453,-0.17956 0.05157,-0.361951 0.05092,-0.544696 6.74e-4,-0.177217 -0.01637,-0.354071 -0.05092,-0.527999 -0.597203,0.210227 -1.225671,0.321649 -1.859881,0.329739 z"
                 id="path14"
                 style="fill:#ffffff" />
              <path
                 d="m 74.17892,11.793383 c -0.731234,-0.001 -1.45865,0.10373 -2.158904,0.310965 -0.03541,0.168166 -0.05247,0.339573 -0.0509,0.511304 -0.0013,0.187611 0.01572,0.37491 0.0509,0.559305 0.686541,-0.190267 1.396896,-0.284409 2.110127,-0.279653 1.338181,0 2.093161,0.609392 2.093161,1.976348 v 0.313044 c -0.4992,-0.07175 -1.003385,-0.10455 -1.507839,-0.09809 -2.093162,0 -3.3656,0.905739 -3.3656,2.454261 0,1.780173 1.374233,2.57113 3.265925,2.57113 0.986207,-0.0062 1.966798,-0.146688 2.913884,-0.417391 v -4.639305 c 0,-2.289391 -1.323336,-3.261921 -3.350754,-3.261921 z m 2.044384,7.085226 c -0.518731,0.104015 -1.046343,0.15922 -1.575703,0.164869 -1.304249,0 -2.008332,-0.544695 -2.008332,-1.531826 0,-1.024695 0.738015,-1.442087 2.17587,-1.442087 0.470861,-0.01082 0.941829,0.01641 1.408165,0.08139 z"
                 id="path16"
                 style="fill:#ffffff" />
              <path
                 d="m 73.542701,10.063304 c 0.30904,0.01587 0.611479,0.094 0.888586,0.229566 0.337106,0.171686 0.708619,0.267896 1.087935,0.281739 0.477734,-0.0099 0.938061,-0.178327 1.30637,-0.477913 0.02034,-0.1585594 0.03167,-0.3181119 0.03393,-0.4779134 -0.0016,-0.1542814 -0.01295,-0.3083159 -0.03393,-0.4612174 -0.37448,0.2866387 -0.832131,0.4482138 -1.30637,0.4612174 C 75.15014,9.6091022 74.787895,9.5185574 74.458856,9.3537391 74.1737,9.2053774 73.858592,9.121261 73.536338,9.1074783 73.059406,9.1217475 72.601638,9.2954611 72.238451,9.6 c -0.0346,0.1513566 -0.05167,0.3060808 -0.0509,0.461217 -0.0027,0.15523 0.01439,0.31018 0.0509,0.461218 0.372393,-0.288638 0.830311,-0.449837 1.30425,-0.459131 z"
                 id="path18"
                 style="fill:#ffffff" />
              <path
                 d="m 82.719103,11.793391 c -2.226768,0 -3.615846,1.531826 -3.615846,4.173913 0,2.604522 1.372112,4.153044 3.605242,4.153044 2.260699,0 3.634932,-1.565218 3.634932,-4.153044 -0.0064,-2.658782 -1.329698,-4.173913 -3.624328,-4.173913 z m -0.0106,7.216696 c -1.439976,0 -2.192836,-1.087304 -2.192836,-3.049043 0,-1.993044 0.786791,-3.063653 2.209802,-3.063653 1.456942,0 2.209801,1.043479 2.209801,3.063653 -0.0064,1.986782 -0.776187,3.049043 -2.226767,3.049043 z"
                 id="path20"
                 style="fill:#ffffff" />
              <path
                 d="m 94.752129,11.048348 c -0.626824,-0.0082 -1.248113,0.116329 -1.821708,0.365217 V 7.1332174 C 92.203536,7.3861267 91.522072,7.7510181 90.911485,8.2142609 90.632272,8.4142457 90.476923,8.7412728 90.500063,9.0803478 V 19.648696 c 0.646823,0.269217 1.959556,0.500869 3.215028,0.500869 3.181096,0 4.996442,-1.909565 4.996442,-4.666435 0,-2.756869 -1.293646,-4.434782 -3.959404,-4.434782 z m -0.901311,7.154087 c -0.309988,0.0147 -0.620427,-0.01768 -0.920397,-0.096 v -4.8 c 0.441678,-0.198742 0.925131,-0.291031 1.410286,-0.269218 1.215179,0 1.862001,0.834783 1.862001,2.389566 0,1.638261 -0.769825,2.775652 -2.35189,2.775652 z"
                 id="path22"
                 style="fill:#ffffff" />
              <path
                 d="m 104.90407,11.125565 c -1.15792,0 -1.82383,0.442435 -2.44945,1.233392 -0.0546,-0.386965 -0.14688,-0.767856 -0.27569,-1.137392 -0.32708,-0.07593 -0.66304,-0.108219 -0.99887,-0.096 -0.32915,-0.0029 -0.65766,0.02926 -0.97977,0.096 v 8.736 c 0.40024,0.07587 0.80776,0.10806 1.21517,0.096 0.40712,0.0025 0.81369,-0.02961 1.21518,-0.096 V 15.696 c 0,-1.696696 0.90131,-2.604522 2.12073,-2.604522 0.26855,-0.0065 0.53722,0.0067 0.80376,0.03965 0.13956,-0.634278 0.15252,-1.289201 0.0382,-1.928347 -0.22646,-0.04884 -0.45741,-0.07472 -0.68923,-0.07722 z"
                 id="path24"
                 style="fill:#ffffff" />
              <path
                 d="M 120.26664,9.0803478 V 11.184 c -0.41614,-0.100625 -0.84405,-0.146244 -1.27244,-0.135652 -2.68484,0 -4.50655,1.773913 -4.50655,4.608 0,2.892522 1.78353,4.493217 4.56593,4.493217 1.23551,0.01448 2.46545,-0.165176 3.64342,-0.532174 V 7.1332174 c -0.73027,0.2511851 -1.4148,0.6161828 -2.02742,1.0810435 -0.27602,0.2018638 -0.42801,0.5285708 -0.40294,0.8660869 z m 0,8.9864352 c -0.33722,0.09758 -0.68774,0.143342 -1.03916,0.135652 -1.60751,0 -2.23313,-1.043479 -2.23313,-2.546087 0,-1.669565 0.63622,-2.698435 2.21405,-2.698435 0.35812,-0.0055 0.71519,0.03949 1.06036,0.133565 z"
                 id="path26"
                 style="fill:#ffffff" />
              <path
                 d="m 109.39153,11.008696 c -0.88491,-0.0153 -1.76811,0.0822 -2.62758,0.290087 -0.14526,0.622155 -0.14526,1.268627 0,1.890782 0.73298,-0.17892 1.48652,-0.263107 2.24161,-0.250435 1.25335,0 1.862,0.502957 1.862,1.523479 v 0.09809 c -0.37325,-0.03965 -0.82284,-0.07722 -1.13671,-0.07722 -2.07832,0 -3.86185,0.732522 -3.86185,2.698435 0,2.218435 1.60751,2.969739 3.94032,2.969739 1.15054,-0.01197 2.29334,-0.186981 3.39317,-0.519652 V 14.63374 c -0.0106,-2.389565 -1.32334,-3.572869 -3.81096,-3.625044 z m 1.46967,7.174956 c -0.3434,0.05797 -0.69079,0.09006 -1.03916,0.096 -1.11762,0 -1.72415,-0.327652 -1.72415,-1.099826 0,-0.772174 0.60653,-1.078956 1.72415,-1.078956 0.37113,0 0.80376,0.03757 1.03916,0.05635 z"
                 id="path28"
                 style="fill:#ffffff" />
              <path
                 d="m 145.21067,18.183652 c -1.21517,0 -2.01681,-0.945391 -2.01681,-2.604522 0,-1.579826 0.63622,-2.602434 2.03802,-2.602434 0.53157,-0.0041 1.05815,0.101104 1.54601,0.308869 0.18047,-0.604204 0.47312,-1.170278 0.86314,-1.669565 -0.83921,-0.429509 -1.77784,-0.635969 -2.72302,-0.598956 -2.68484,0 -4.24146,1.87826 -4.24146,4.570434 0,2.796522 1.58631,4.570435 4.33053,4.570435 0.92378,0.03022 1.84046,-0.168567 2.66576,-0.578087 -0.40389,-0.499454 -0.71608,-1.064456 -0.92251,-1.669565 -0.48441,0.20843 -1.01177,0.302071 -1.53966,0.273391 z"
                 id="path30"
                 style="fill:#ffffff" />
              <path
                 d="m 152.01186,11.008696 c -2.72514,0 -4.25419,1.832348 -4.25419,4.591304 0,2.796522 1.60752,4.551652 4.25419,4.551652 2.7421,0 4.27115,-1.792695 4.27115,-4.551652 0,-2.758956 -1.52905,-4.591304 -4.27115,-4.591304 z m 0,7.212521 c -1.35303,0 -1.76445,-1.078956 -1.76445,-2.623304 0,-1.502609 0.41142,-2.660869 1.76445,-2.660869 1.3912,0 1.78141,1.118608 1.78141,2.660869 0,1.621565 -0.44959,2.623304 -1.78141,2.623304 z"
                 id="path32"
                 style="fill:#ffffff" />
              <path
                 d="m 128.30421,11.008696 c -2.62546,0 -4.24146,1.736348 -4.24146,4.628869 0,2.892522 1.69658,4.512 4.62531,4.512 0.99887,0 2.0762,-0.173217 2.75695,-0.500869 0.13572,-0.609817 0.13572,-1.241314 0,-1.851131 -0.8111,0.251254 -1.65442,0.387578 -2.50458,0.40487 -1.35091,0 -2.29251,-0.50087 -2.48762,-1.909565 h 5.5245 c 0.0746,-0.40053 0.10727,-0.807524 0.0976,-1.214609 0.006,-2.602435 -1.48239,-4.069565 -3.77066,-4.069565 z m -1.84504,3.529043 c 0.17602,-1.060174 0.82285,-1.696695 1.80262,-1.696695 1.09642,0 1.52693,0.732521 1.56722,1.696695 z"
                 id="path34"
                 style="fill:#ffffff" />
              <path
                 d="m 137.64815,14.769391 -0.97978,-0.404869 c -0.56835,-0.231652 -0.90131,-0.417392 -0.90131,-0.790957 0,-0.559304 0.50898,-0.674087 1.17489,-0.674087 0.77907,6.04e-4 1.55303,0.123903 2.29251,0.365218 0.11887,-0.59184 0.11887,-1.200856 0,-1.792696 -0.58745,-0.30887 -1.68599,-0.463304 -2.64456,-0.463304 -1.88108,0 -3.31258,1.003826 -3.31258,2.504348 0,1.348173 0.58745,2.024347 2.23313,2.679652 l 0.76559,0.308869 c 0.72317,0.292174 0.93524,0.467479 0.93524,0.928696 0,0.694956 -0.70408,0.809739 -1.29153,0.809739 -0.91351,-0.0103 -1.81724,-0.186472 -2.66576,-0.519652 -0.15835,0.61639 -0.15835,1.26187 0,1.878261 0.80376,0.417391 1.90866,0.559304 3.05598,0.559304 1.862,0 3.35077,-0.964174 3.35077,-2.700522 0.004,-1.433739 -0.62139,-2.109913 -2.01259,-2.688 z"
                 id="path36"
                 style="fill:#ffffff" />
              <path
                 d="M 10.009849,4.4535652 C 8.7006627,4.4582594 7.3941017,4.5692446 6.1034631,4.7853913 7.5146525,3.0147777 9.6763879,1.9830755 11.963042,1.9888696 c 1.705299,0.00512 3.35893,0.5764738 4.693177,1.6215652 0.212073,0.1753043 0.37749,0.189913 0.540787,0.031304 C 17.360302,3.4831304 17.345457,3.3245217 17.165195,3.117913 15.27845,0.89937381 12.336817,-0.16687757 9.4384853,0.3172187 6.540154,0.80131496 4.1207659,2.7629955 3.0835425,5.469913 2.1044588,5.7597562 1.1585143,6.1486135 0.26084988,6.6302609 0.03181096,6.7575652 -0.05089754,6.9161739 0.03181096,7.106087 c 0.03929988,0.085301 0.11146302,0.1517162 0.20057731,0.1846019 0.0891143,0.032886 0.18786102,0.029541 0.27446638,-0.0093 C 1.2300238,7.0726956 1.9680381,6.8994783 2.7378634,6.7408696 2.6532471,7.1488689 2.609914,7.5641142 2.6084988,7.9805217 c -0.037478,2.7771183 1.3903993,5.3749243 3.77278,6.8640003 0.2311596,0.144 0.4241461,0.144 0.5598729,-0.0313 0.065699,-0.07539 0.094393,-0.175386 0.078464,-0.273455 C 7.0036871,14.441694 6.9447477,14.355478 6.8584432,14.304 5.3902457,12.976389 4.556132,11.103019 4.5595711,9.1408696 4.5551816,8.1946951 4.7509023,7.2579727 5.1342891,6.3902609 5.9062351,6.3276522 6.7439238,6.2796522 7.6622002,6.2796522 c 5.9740988,0 11.0129548,1.9387826 11.0129548,4.4806958 0,1.287652 -1.658412,2.575304 -3.617967,3.430956 -0.475043,0.208696 -0.52382,0.348522 -0.458078,0.555131 0.06574,0.206609 0.277816,0.254609 0.523821,0.175304 3.446187,-1.112348 6.056807,-2.938435 6.056807,-5.1485216 -0.0106,-3.0010435 -4.934941,-5.3196522 -11.169889,-5.3196522 z"
                 id="path38"
                 style="fill:#ffffff" />
              <path
                 d="m 12.42112,13.068522 -1.76869,1.001739 v 5.964522 h 1.891692 c 0.175687,0 0.31811,-0.140155 0.31811,-0.313044 v -6.427826 c 0.0033,-0.104265 -0.05444,-0.201158 -0.148517,-0.249228 -0.09408,-0.04807 -0.207831,-0.0388 -0.292595,0.02384 z"
                 id="path40"
                 style="fill:#ffffff" />
              <path
                 d="m 8.7352899,15.389217 v 4.449392 c 0,0.115259 0.094948,0.208695 0.2120731,0.208695 h 1.215179 v -5.693217 l -1.2130583,0.684522 c -0.1343472,0.06621 -0.2177848,0.202789 -0.2141938,0.350608 z"
                 id="path42"
                 style="fill:#ffffff" />
            </g>
          </g>
        </g>
      </g>
    </g>
  </g>
  <metadata
     id="metadata391">
    <rdf:RDF>
      <cc:Work
         rdf:about="">
        <dc:title>escola_virtual_horizontal_vermelho</dc:title>
      </cc:Work>
    </rdf:RDF>
  </metadata>
</svg>
